PathFileType	4	(X/Y/Z)	Kaydara	
DataRate	CameraRate	NumFrames	NumMarkers	Units	OrigDataRate	OrigDataStartFrame	OrigNumFrames	
120.00	120.00	6	30	mm	120.00	1424	2847	
Frame#	Time	reference			Pelvis			Left_hip			Left_knee			Left_ankle			Left_foot			Left_foot_End			Right_hip			Right_knee			Right_ankle			Right_foot			Right_foot_End			Spine1			Spine2			Spine3			Neck			Head			Head_End			Left_collar			Left_shoulder			Left_elbow			Left_wrist			Left_palm			Left_palm_End			Right_collar			Right_shoulder			Right_elbow			Right_wrist			Right_palm			Right_palm_End			
		X1	Y1	Z1	X2	Y2	Z2	X3	Y3	Z3	X4	Y4	Z4	X5	Y5	Z5	X6	Y6	Z6	X7	Y7	Z7	X8	Y8	Z8	X9	Y9	Z9	X10	Y10	Z10	X11	Y11	Z11	X12	Y12	Z12	X13	Y13	Z13	X14	Y14	Z14	X15	Y15	Z15	X16	Y16	Z16	X17	Y17	Z17	X18	Y18	Z18	X19	Y19	Z19	X20	Y20	Z20	X21	Y21	Z21	X22	Y22	Z22	X23	Y23	Z23	X24	Y24	Z24	X25	Y25	Z25	X26	Y26	Z26	X27	Y27	Z27	X28	Y28	Z28	X29	Y29	Z29	X30	Y30	Z30	

1424	11.858	0.00000	0.00000	0.00000	764.38004	956.58157	-932.94960	679.96545	898.70366	-926.77518	697.85599	547.43956	-1092.92078	784.80430	255.19068	-791.47159	754.11336	173.95475	-904.04554	754.11336	173.95475	-904.04554	785.84465	858.10490	-889.88070	840.74140	502.15062	-1029.14297	873.33489	120.58203	-852.11376	938.41079	41.18673	-959.42876	938.41079	41.18673	-959.42876	800.88293	1074.38080	-949.96584	839.97115	1205.94493	-964.96934	860.34318	1257.40513	-974.44238	934.53035	1455.98662	-989.00702	956.06204	1554.87587	-1006.63031	956.06204	1554.87587	-1006.63031	824.84616	1387.12972	-994.58889	714.25183	1451.77512	-1027.84079	582.60776	1233.86965	-1061.79526	409.03571	1048.39057	-1141.08684	362.78216	974.06424	-1155.50055	362.78216	974.06424	-1155.50055	965.63205	1347.35771	-944.17533	1083.27482	1351.99512	-909.15734	1006.69752	1101.02726	-908.01261	916.69434	1031.28601	-1152.01503	886.87832	1011.94958	-1234.42456	886.87832	1011.94958	-1234.42456 
1425	11.867	0.00000	0.00000	0.00000	764.40971	956.61003	-932.94014	680.00266	898.71875	-926.78807	698.16387	547.43100	-1092.85429	785.24270	255.20739	-791.41828	754.53967	173.97125	-903.98877	754.53967	173.97125	-903.98877	785.88428	858.12526	-889.89471	840.73634	502.15857	-1029.14285	873.40892	120.58445	-852.14011	938.49779	41.20196	-959.45672	938.49779	41.20196	-959.45672	800.89767	1074.41873	-949.92282	839.96877	1205.99204	-964.89039	860.33429	1257.45732	-974.34974	934.49829	1456.05118	-988.86371	956.01640	1554.94796	-1006.46135	956.01640	1554.94796	-1006.46135	824.82124	1387.18376	-994.45604	714.20392	1451.81240	-1027.66402	582.80098	1233.79367	-1061.82485	409.19666	1048.32827	-1141.07777	362.92851	974.00774	-1155.47452	362.92851	974.00774	-1155.47452	965.61579	1347.41286	-944.06581	1083.26063	1352.05101	-909.05486	1006.66713	1101.08772	-907.99629	916.73545	1031.38077	-1152.03488	886.94276	1012.04186	-1234.45226	886.94276	1012.04186	-1234.45226 
1426	11.875	0.00000	0.00000	0.00000	764.44267	956.64001	-932.93098	680.04260	898.73732	-926.79068	698.17768	547.45681	-1092.87510	785.36880	255.22052	-791.48385	754.63657	173.99306	-904.05265	754.63657	173.99306	-904.05265	785.93157	858.14416	-889.91808	840.75302	502.18472	-1029.19682	873.37998	120.60748	-852.19242	938.46975	41.22100	-959.50553	938.46975	41.22100	-959.50553	800.91609	1074.45814	-949.87947	839.96905	1206.04182	-964.80311	860.32606	1257.51441	-974.24104	934.45407	1456.12903	-988.65439	955.95262	1555.03893	-1006.20209	955.95262	1555.03893	-1006.20209	824.78901	1387.24505	-994.27771	714.14683	1451.86161	-1027.42636	582.82496	1233.81315	-1061.70896	409.21601	1048.34219	-1140.93872	362.94368	974.02200	-1155.32383	362.94368	974.02200	-1155.32383	965.59297	1347.47278	-943.91488	1083.24704	1352.09923	-908.93343	1006.66551	1101.13186	-907.98117	916.84673	1031.45256	-1152.06923	887.07800	1012.12394	-1234.49768	887.07800	1012.12394	-1234.49768 
1427	11.883	0.00000	0.00000	0.00000	764.46999	956.66428	-932.92183	680.07974	898.74469	-926.80577	698.20877	547.47499	-1092.91369	785.44453	255.19795	-791.57487	754.67971	173.98605	-904.14599	754.67971	173.98605	-904.14599	785.97647	858.15234	-889.95458	840.60463	502.16083	-1029.22730	873.21219	120.56256	-852.26466	938.33084	41.19744	-959.57606	938.33084	41.19744	-959.57606	800.92330	1074.49623	-949.81737	839.93973	1206.10269	-964.63527	860.27179	1257.59924	-973.99596	934.27317	1456.29248	-987.96966	955.70418	1555.25640	-1005.29405	955.70418	1555.25640	-1005.29405	824.64882	1387.35422	-993.72001	713.98790	1451.97839	-1026.79117	582.68932	1233.92606	-1061.13832	409.05259	1048.47959	-1140.36452	362.76572	974.16745	-1154.74442	362.76572	974.16745	-1154.74442	965.49254	1347.55167	-943.49247	1083.15042	1352.17415	-908.52331	1006.58241	1101.20207	-907.74184	916.78021	1031.51392	-1151.83347	887.06175	1012.18654	-1234.28035	887.06175	1012.18654	-1234.28035 
1428	11.892	0.00000	0.00000	0.00000	764.48837	956.68739	-932.91267	680.10806	898.75071	-926.82156	698.17161	547.50070	-1092.97824	785.54910	255.18944	-791.71369	754.75727	173.99611	-904.29082	754.75727	173.99611	-904.29082	786.01254	858.15909	-889.99182	840.49989	502.16563	-1029.31470	873.08088	120.56857	-852.34457	938.18748	41.19708	-959.65856	938.18748	41.19708	-959.65856	800.92136	1074.53336	-949.75422	839.90925	1206.15716	-964.49311	860.22579	1257.66800	-973.80869	934.15653	1456.40364	-987.55156	955.54949	1555.39607	-1004.75968	955.54949	1555.39607	-1004.75968	824.55482	1387.43486	-993.36717	713.87911	1452.06339	-1026.38025	582.68245	1233.96101	-1060.79900	409.04705	1048.50339	-1140.00204	362.76022	974.18947	-1154.37283	362.76022	974.18947	-1154.37283	965.42108	1347.61904	-943.21339	1083.08316	1352.22459	-908.25614	1006.47530	1101.26416	-907.65795	916.73726	1031.55756	-1151.76790	887.01156	1012.22855	-1234.21179	887.01156	1012.22855	-1234.21179 
1429	11.900	0.00000	0.00000	0.00000	764.50264	956.70998	-932.90329	680.13253	898.75564	-926.83884	698.27468	547.51853	-1093.01423	785.73030	255.18485	-791.79412	754.92417	174.00240	-904.37518	754.92417	174.00240	-904.37518	786.04472	858.16460	-890.03065	840.46559	502.16767	-1029.37063	873.08645	120.58558	-852.37555	938.22394	41.21966	-959.67491	938.22394	41.21966	-959.67491	800.91481	1074.57045	-949.68825	839.87296	1206.21244	-964.34308	860.17300	1257.73858	-973.60992	934.02841	1456.51943	-987.10152	955.38055	1555.54268	-1004.18252	955.38055	1555.54268	-1004.18252	824.45053	1387.51864	-992.98595	713.77676	1452.14252	-1026.01466	582.66160	1234.00252	-1060.50550	409.01780	1048.53780	-1139.67347	362.72527	974.22428	-1154.02800	362.72527	974.22428	-1154.02800	965.34225	1347.68666	-942.91662	1082.99821	1352.28139	-907.93731	1006.35215	1101.33225	-907.52162	916.63947	1031.60610	-1151.63531	886.93272	1012.26579	-1234.08338	886.93272	1012.26579	-1234.08338 
